<svg version="1.1" id="Layer_1" xmlns="http://www.w3.org/2000/svg" xmlns:xlink="http://www.w3.org/1999/xlink" x="0px" y="0px"
	 width="100%" viewBox="0 0 280 79" enable-background="new 0 0 280 79" xml:space="preserve">
<path fill="#FCFDFD" opacity="1.000000" stroke="none" 
	d="
M218.000000,1.000000 
	C238.979492,1.000000 259.958984,1.000000 280.969238,1.000000 
	C280.969238,27.287073 280.969238,53.574188 280.969238,80.000000 
	C234.258728,80.000000 187.517334,80.000000 140.775925,80.000000 
	C94.183929,80.000000 47.591942,80.000000 1.005082,80.000000 
	C1.005082,53.608448 1.005082,27.304224 1.007623,0.999999 
	C3.008173,1.000000 5.006182,1.000000 7.510317,1.444129 
	C8.051690,3.665347 8.086936,5.442436 8.165426,7.671869 
	C8.208671,25.048401 8.208671,41.972588 8.208671,59.015385 
	C10.734010,59.015385 12.664557,59.015385 14.984398,59.015385 
	C14.984398,41.543736 14.984398,24.276423 15.054247,7.038570 
	C15.124097,7.068032 15.263862,7.009267 15.638336,7.004781 
	C19.908810,6.348612 23.702801,5.544140 25.000000,1.000000 
	C81.687561,1.000000 138.375122,1.000000 195.491043,1.364940 
	C195.612961,2.304032 195.373383,2.927885 194.989410,3.444414 
	C192.060074,7.385144 192.516663,12.211913 196.372345,15.781362 
	C199.472504,18.651369 202.839844,18.752373 206.235153,16.187561 
	C210.382507,13.054646 211.218399,9.022928 208.711609,4.473680 
	C208.089294,3.344316 207.567825,2.159384 207.000000,1.000000 
	C208.388885,1.000000 209.777786,1.000000 211.627426,1.382948 
	C212.935226,4.391959 213.782288,7.018023 214.866684,10.379918 
	C216.160095,6.507963 217.080048,3.753981 218.000000,1.000000 
M180.887375,19.718908 
	C180.933746,14.487561 183.906311,12.669479 189.025772,12.567548 
	C187.180786,11.528280 185.314468,10.913471 183.736099,11.347022 
	C179.759216,12.439412 177.948547,15.431722 177.014847,19.437216 
	C175.363373,19.290733 173.711426,19.013540 172.060486,19.019310 
	C162.460083,19.052856 158.044083,23.195154 157.547791,32.818142 
	C157.325562,37.126842 157.279510,41.464092 157.490601,45.771862 
	C158.020096,56.576820 163.863815,61.138790 174.675995,59.410526 
	C183.905869,57.935184 186.474411,55.464802 186.599747,47.942455 
	C182.255249,47.240005 182.353363,47.318916 179.627579,50.707767 
	C178.764862,51.780312 177.321365,52.657978 175.979080,53.028233 
	C167.397125,55.395466 163.350739,51.596684 164.471298,41.856709 
	C171.800156,41.856709 179.198746,41.856709 187.231598,41.856709 
	C186.960052,36.939953 186.715927,32.519577 187.311249,28.059351 
	C191.681976,28.294704 194.332306,25.267534 195.518356,22.033985 
	C196.191071,20.199926 193.956665,17.299541 192.748398,14.138660 
	C190.214844,16.339291 188.705383,17.650394 187.340317,18.836077 
	C189.457626,19.737711 191.149643,20.458242 192.841675,21.178772 
	C191.043121,22.784491 189.272156,24.423456 187.418030,25.962210 
	C187.119492,26.209978 186.450226,26.011047 185.433533,25.635757 
	C183.876511,23.944151 182.319504,22.252544 180.887375,19.718908 
M132.501007,59.056293 
	C137.419418,59.855659 142.021729,59.429398 146.289307,54.390831 
	C145.903687,58.596333 146.441925,61.967049 145.141479,64.322762 
	C143.827820,66.702415 140.906174,69.001350 138.288544,69.608025 
	C136.050278,70.126778 131.728180,68.876442 130.988281,67.220108 
	C129.121170,63.040428 126.610664,63.834042 122.289162,64.613014 
	C124.440323,68.066002 125.588936,71.780441 128.105530,73.556290 
	C133.200424,77.151543 139.209595,76.515343 144.783768,74.162186 
	C149.797760,72.045494 151.652542,67.539322 151.883621,62.479321 
	C152.156601,56.501358 152.011398,50.503662 152.021469,44.514477 
	C152.035385,36.251938 152.024948,27.989353 152.024948,19.726788 
	C151.590485,19.374538 151.156021,19.022291 150.721558,18.670042 
	C148.813522,19.918722 146.905487,21.167402 144.565689,22.698643 
	C145.113617,23.189905 144.614227,22.778172 144.155472,22.325289 
	C139.824173,18.049404 134.695786,18.660168 129.703857,20.407356 
	C124.943329,22.073547 122.875565,26.050776 122.753677,30.947195 
	C122.617218,36.429081 122.571289,41.918510 122.692429,47.400097 
	C122.825417,53.417850 125.742966,57.426090 132.501007,59.056293 
M247.667084,21.796707 
	C246.319138,16.880892 244.971207,11.965075 243.562302,6.826967 
	C240.685638,7.372891 237.298660,4.975422 236.078217,9.661777 
	C231.822495,26.002954 227.444168,42.312206 223.031326,58.939171 
	C225.420868,58.939171 227.511703,58.939171 228.934357,58.939171 
	C232.517517,56.209736 228.969360,49.152794 236.104782,49.535557 
	C239.905533,49.739441 244.269272,48.661942 247.335770,50.218204 
	C249.511246,51.322285 249.941437,55.865276 251.171814,58.925953 
	C253.086746,58.925953 255.019592,58.925953 257.416931,58.925953 
	C254.177261,46.576088 251.030731,34.581318 247.667084,21.796707 
M26.432259,53.876156 
	C24.558653,57.473400 22.685047,61.070644 20.705683,64.870941 
	C41.896023,64.870941 62.396053,64.870941 83.598183,64.870941 
	C74.887047,48.796883 66.479507,33.283031 57.770493,17.212883 
	C53.863010,25.246561 50.322369,32.526024 46.728683,39.914543 
	C44.074257,36.577065 41.751122,33.656120 38.993908,30.189404 
	C34.677814,38.357803 30.745502,45.799881 26.432259,53.876156 
M107.764946,57.411148 
	C108.763741,56.673679 109.762543,55.936214 110.761345,55.198746 
	C110.613304,55.728764 110.465271,56.258778 110.317238,56.788795 
	C112.459190,57.793919 114.601143,58.799042 117.697990,60.252251 
	C117.697990,50.377800 117.811630,42.079098 117.670662,33.784718 
	C117.472298,22.113201 112.023232,17.511950 100.467102,19.011015 
	C93.695084,19.889484 90.545830,24.059429 91.355316,31.332012 
	C93.103882,31.332012 94.878624,31.332012 96.616066,31.332012 
	C98.500977,25.267891 101.038284,23.695494 106.422195,25.155485 
	C110.403183,26.235041 111.606468,29.464098 110.378258,35.769440 
	C106.755814,36.187729 103.103264,36.434246 99.517609,37.062481 
	C93.341705,38.144543 89.108772,42.932133 89.016899,48.598381 
	C88.867493,57.814095 96.943924,61.937340 107.764946,57.411148 
M262.560547,42.499161 
	C262.560547,47.931473 262.560547,53.363781 262.560547,58.877548 
	C265.024536,58.877548 266.906982,58.877548 268.753540,58.877548 
	C268.753540,41.354553 268.753540,24.143129 268.753540,7.160160 
	C266.503387,7.160160 264.615143,7.160160 262.560425,7.160160 
	C262.560425,18.877430 262.560425,30.188280 262.560547,42.499161 
M213.415894,35.754555 
	C206.514267,35.754555 199.612625,35.754555 192.839355,35.754555 
	C192.839355,38.222488 192.839355,39.935715 192.839355,41.421970 
	C201.473816,41.421970 209.705429,41.421970 217.936951,41.421970 
	C218.249451,38.280308 219.268967,35.051918 213.415894,35.754555 
z"/>
<path fill="#F2F3F3" opacity="1.000000" stroke="none" 
	d="
M206.541931,1.000000 
	C207.567825,2.159384 208.089294,3.344316 208.711609,4.473680 
	C211.218399,9.022928 210.382507,13.054646 206.235153,16.187561 
	C202.839844,18.752373 199.472504,18.651369 196.372345,15.781362 
	C192.516663,12.211913 192.060074,7.385144 194.989410,3.444414 
	C195.373383,2.927885 195.612961,2.304032 195.959702,1.364940 
	C199.361282,1.000000 202.722580,1.000000 206.541931,1.000000 
M203.242996,14.958727 
	C206.607391,14.272913 207.723129,11.701613 206.816238,9.003613 
	C206.069458,6.781922 204.304184,4.150588 202.304794,3.286024 
	C199.606155,2.119076 196.670074,3.194300 196.037582,6.909139 
	C195.319595,11.125957 197.866745,14.323308 203.242996,14.958727 
z"/>
<path fill="#F0F1F1" opacity="1.000000" stroke="none" 
	d="
M24.550020,1.000000 
	C23.702801,5.544140 19.908810,6.348612 15.555698,6.682303 
	C15.058500,5.924664 15.018414,5.485014 15.251781,4.806812 
	C15.683490,3.378840 15.841744,2.189420 16.000000,1.000000 
	C18.700014,1.000000 21.400026,1.000000 24.550020,1.000000 
z"/>
<path fill="#E4E5E5" opacity="1.000000" stroke="none" 
	d="
M14.978330,5.045365 
	C15.018414,5.485014 15.058500,5.924664 15.181223,6.686790 
	C15.263862,7.009267 15.124097,7.068032 14.632335,6.931888 
	C12.134442,6.937005 10.128313,7.078265 8.122183,7.219525 
	C8.086936,5.442436 8.051690,3.665347 8.008222,1.444129 
	C9.714358,1.000000 11.428718,1.000000 13.600883,1.347906 
	C14.365237,2.812329 14.671783,3.928847 14.978330,5.045365 
z"/>
<path fill="#F2F3F3" opacity="1.000000" stroke="none" 
	d="
M217.571533,1.000000 
	C217.080048,3.753981 216.160095,6.507963 214.866684,10.379918 
	C213.782288,7.018023 212.935226,4.391959 212.044098,1.382948 
	C213.714355,1.000000 215.428711,1.000000 217.571533,1.000000 
z"/>
<path fill="#FCFDFD" opacity="1.000000" stroke="none" 
	d="
M15.251782,4.806812 
	C14.671783,3.928847 14.365237,2.812329 14.029345,1.347906 
	C14.444445,1.000000 14.888889,1.000000 15.666667,1.000000 
	C15.841744,2.189420 15.683490,3.378840 15.251782,4.806812 
z"/>
<path fill="#393939" opacity="1.000000" stroke="none" 
	d="
M132.117676,58.997704 
	C125.742966,57.426090 122.825417,53.417850 122.692429,47.400097 
	C122.571289,41.918510 122.617218,36.429081 122.753677,30.947195 
	C122.875565,26.050776 124.943329,22.073547 129.703857,20.407356 
	C134.695786,18.660168 139.824173,18.049404 144.155472,22.325289 
	C144.614227,22.778172 145.113617,23.189905 144.565689,22.698643 
	C146.905487,21.167402 148.813522,19.918722 150.721558,18.670042 
	C151.156021,19.022291 151.590485,19.374538 152.024948,19.726788 
	C152.024948,27.989353 152.035385,36.251938 152.021469,44.514477 
	C152.011398,50.503662 152.156601,56.501358 151.883621,62.479321 
	C151.652542,67.539322 149.797760,72.045494 144.783768,74.162186 
	C139.209595,76.515343 133.200424,77.151543 128.105530,73.556290 
	C125.588936,71.780441 124.440323,68.066002 122.289162,64.613014 
	C126.610664,63.834042 129.121170,63.040428 130.988281,67.220108 
	C131.728180,68.876442 136.050278,70.126778 138.288544,69.608025 
	C140.906174,69.001350 143.827820,66.702415 145.141479,64.322762 
	C146.441925,61.967049 145.903687,58.596333 146.289307,54.390831 
	C142.021729,59.429398 137.419418,59.855659 132.117676,58.997704 
M144.049484,28.747091 
	C141.292404,24.934177 137.408524,24.544519 133.390762,25.741072 
	C129.262161,26.970633 128.886765,30.531590 128.982040,34.227364 
	C129.084656,38.207752 128.891159,42.198338 129.070953,46.173435 
	C129.243484,49.988411 130.611496,52.907825 135.148666,53.168011 
	C140.984436,53.502663 144.602921,51.795296 144.896622,47.207817 
	C145.272980,41.329361 144.621536,35.385105 144.049484,28.747091 
z"/>
<path fill="#3C3C3C" opacity="1.000000" stroke="none" 
	d="
M247.775635,22.191629 
	C251.030731,34.581318 254.177261,46.576088 257.416931,58.925953 
	C255.019592,58.925953 253.086746,58.925953 251.171814,58.925953 
	C249.941437,55.865276 249.511246,51.322285 247.335770,50.218204 
	C244.269272,48.661942 239.905533,49.739441 236.104782,49.535557 
	C228.969360,49.152794 232.517517,56.209736 228.934357,58.939171 
	C227.511703,58.939171 225.420868,58.939171 223.031326,58.939171 
	C227.444168,42.312206 231.822495,26.002954 236.078217,9.661777 
	C237.298660,4.975422 240.685638,7.372891 243.562302,6.826967 
	C244.971207,11.965075 246.319138,16.880892 247.775635,22.191629 
M236.259384,33.739853 
	C235.593689,36.739452 234.928009,39.739048 234.223785,42.912243 
	C238.394073,42.912243 242.153610,42.912243 246.212845,42.912243 
	C244.287643,34.123566 242.427948,25.633993 240.264114,15.756025 
	C238.830307,22.346943 237.677002,27.648335 236.259384,33.739853 
z"/>
<path fill="#434343" opacity="1.000000" stroke="none" 
	d="
M26.622723,53.559059 
	C30.745502,45.799881 34.677814,38.357803 38.993908,30.189404 
	C41.751122,33.656120 44.074257,36.577065 46.728683,39.914543 
	C50.322369,32.526024 53.863010,25.246561 57.770493,17.212883 
	C66.479507,33.283031 74.887047,48.796883 83.598183,64.870941 
	C62.396053,64.870941 41.896023,64.870941 20.705683,64.870941 
	C22.685047,61.070644 24.558653,57.473400 26.622723,53.559059 
M70.806465,48.738682 
	C66.688690,41.256393 62.570908,33.774109 58.144020,25.730146 
	C57.236401,27.293842 56.698685,28.083458 56.295376,28.936611 
	C52.885551,36.149643 49.570034,43.408825 46.029823,50.556892 
	C45.518906,51.588490 43.963387,52.102737 42.891277,52.856400 
	C42.747482,51.538937 42.179195,50.085110 42.549389,48.932766 
	C43.290878,46.624638 44.545727,44.481430 45.385010,42.701900 
	C43.150169,40.651459 41.283852,38.939137 39.323936,37.140942 
	C35.166809,45.100647 31.055180,52.973236 26.782215,61.154732 
	C43.883518,61.154732 60.299377,61.154732 76.707863,61.154732 
	C76.742653,60.575802 76.890190,60.187531 76.761856,59.945599 
	C74.894363,56.424950 72.989952,52.923889 70.806465,48.738682 
z"/>
<path fill="#3D3D3D" opacity="1.000000" stroke="none" 
	d="
M186.471802,28.099199 
	C186.715927,32.519577 186.960052,36.939953 187.231598,41.856709 
	C179.198746,41.856709 171.800156,41.856709 164.471298,41.856709 
	C163.350739,51.596684 167.397125,55.395466 175.979080,53.028233 
	C177.321365,52.657978 178.764862,51.780312 179.627579,50.707767 
	C182.353363,47.318916 182.255249,47.240005 186.599747,47.942455 
	C186.474411,55.464802 183.905869,57.935184 174.675995,59.410526 
	C163.863815,61.138790 158.020096,56.576820 157.490601,45.771862 
	C157.279510,41.464092 157.325562,37.126842 157.547791,32.818142 
	C158.044083,23.195154 162.460083,19.052856 172.060486,19.019310 
	C173.711426,19.013540 175.363373,19.290733 177.726227,19.635387 
	C179.212570,20.076015 179.987534,20.318474 180.762497,20.560936 
	C182.319504,22.252544 183.876511,23.944151 185.692337,26.101698 
	C186.124695,27.078159 186.298248,27.588680 186.471802,28.099199 
M174.148880,24.898834 
	C165.159058,24.813730 163.277618,26.929968 164.500031,35.834766 
	C169.895355,35.834766 175.296249,35.834766 180.854996,35.834766 
	C180.780533,30.932545 180.864563,26.344007 174.148880,24.898834 
z"/>
<path fill="#3D3D3D" opacity="1.000000" stroke="none" 
	d="
M107.455521,57.632500 
	C96.943924,61.937340 88.867493,57.814095 89.016899,48.598381 
	C89.108772,42.932133 93.341705,38.144543 99.517609,37.062481 
	C103.103264,36.434246 106.755814,36.187729 110.378479,35.771179 
	C111.606468,29.464098 110.403183,26.235041 106.422195,25.155485 
	C101.038284,23.695494 98.500977,25.267891 96.616066,31.332012 
	C94.878624,31.332012 93.103882,31.332012 91.355316,31.332012 
	C90.545830,24.059429 93.695084,19.889484 100.467102,19.011015 
	C112.023232,17.511950 117.472298,22.113201 117.670662,33.784718 
	C117.811630,42.079098 117.697990,50.377800 117.697990,60.252251 
	C114.601143,58.799042 112.459190,57.793919 110.317238,56.788795 
	C110.465271,56.258778 110.613304,55.728764 110.761345,55.198746 
	C109.762543,55.936214 108.763741,56.673679 107.455521,57.632500 
M100.627151,53.149128 
	C108.151985,52.745804 111.272728,49.180725 110.380714,41.110249 
	C106.670906,41.783699 102.830994,41.994202 99.417381,43.310345 
	C97.766014,43.947037 95.965416,46.670044 95.984138,48.429794 
	C96.000954,50.009808 98.415627,51.564301 100.627151,53.149128 
z"/>
<path fill="#3D3D3D" opacity="1.000000" stroke="none" 
	d="
M8.165426,7.671869 
	C10.128313,7.078265 12.134442,6.937005 14.562485,6.902426 
	C14.984398,24.276423 14.984398,41.543736 14.984398,59.015385 
	C12.664557,59.015385 10.734010,59.015385 8.208671,59.015385 
	C8.208671,41.972588 8.208671,25.048401 8.165426,7.671869 
z"/>
<path fill="#333333" opacity="1.000000" stroke="none" 
	d="
M262.560486,41.999146 
	C262.560425,30.188280 262.560425,18.877430 262.560425,7.160160 
	C264.615143,7.160160 266.503387,7.160160 268.753540,7.160160 
	C268.753540,24.143129 268.753540,41.354553 268.753540,58.877548 
	C266.906982,58.877548 265.024536,58.877548 262.560547,58.877548 
	C262.560547,53.363781 262.560547,47.931473 262.560486,41.999146 
z"/>
<path fill="#424242" opacity="1.000000" stroke="none" 
	d="
M213.903198,35.754646 
	C219.268967,35.051918 218.249451,38.280308 217.936951,41.421970 
	C209.705429,41.421970 201.473816,41.421970 192.839355,41.421970 
	C192.839355,39.935715 192.839355,38.222488 192.839355,35.754555 
	C199.612625,35.754555 206.514267,35.754555 213.903198,35.754646 
z"/>
<path fill="#F0F1F1" opacity="1.000000" stroke="none" 
	d="
M186.891510,28.079277 
	C186.298248,27.588680 186.124695,27.078159 185.951736,26.293123 
	C186.450226,26.011047 187.119492,26.209978 187.418030,25.962210 
	C189.272156,24.423456 191.043121,22.784491 192.841675,21.178772 
	C191.149643,20.458242 189.457626,19.737711 187.340317,18.836077 
	C188.705383,17.650394 190.214844,16.339291 192.748398,14.138660 
	C193.956665,17.299541 196.191071,20.199926 195.518356,22.033985 
	C194.332306,25.267534 191.681976,28.294704 186.891510,28.079277 
z"/>
<path fill="#EDEEEE" opacity="1.000000" stroke="none" 
	d="
M180.824936,20.139919 
	C179.987534,20.318474 179.212570,20.076015 178.177521,19.675949 
	C177.948547,15.431722 179.759216,12.439412 183.736099,11.347022 
	C185.314468,10.913471 187.180786,11.528280 189.025772,12.567548 
	C183.906311,12.669479 180.933746,14.487561 180.824936,20.139919 
z"/>
<path fill="#FDFEFE" opacity="1.000000" stroke="none" 
	d="
M202.840363,14.975637 
	C197.866745,14.323308 195.319595,11.125957 196.037582,6.909139 
	C196.670074,3.194300 199.606155,2.119076 202.304794,3.286024 
	C204.304184,4.150588 206.069458,6.781922 206.816238,9.003613 
	C207.723129,11.701613 206.607391,14.272913 202.840363,14.975637 
z"/>
<path fill="#F9FAFA" opacity="1.000000" stroke="none" 
	d="
M144.231232,29.108147 
	C144.621536,35.385105 145.272980,41.329361 144.896622,47.207817 
	C144.602921,51.795296 140.984436,53.502663 135.148666,53.168011 
	C130.611496,52.907825 129.243484,49.988411 129.070953,46.173435 
	C128.891159,42.198338 129.084656,38.207752 128.982040,34.227364 
	C128.886765,30.531590 129.262161,26.970633 133.390762,25.741072 
	C137.408524,24.544519 141.292404,24.934177 144.231232,29.108147 
z"/>
<path fill="#F5F6F6" opacity="1.000000" stroke="none" 
	d="
M236.391541,33.344788 
	C237.677002,27.648335 238.830307,22.346943 240.264114,15.756025 
	C242.427948,25.633993 244.287643,34.123566 246.212845,42.912243 
	C242.153610,42.912243 238.394073,42.912243 234.223785,42.912243 
	C234.928009,39.739048 235.593689,36.739452 236.391541,33.344788 
z"/>
<path fill="#FBFCFC" opacity="1.000000" stroke="none" 
	d="
M70.950409,49.078415 
	C72.989952,52.923889 74.894363,56.424950 76.761856,59.945599 
	C76.890190,60.187531 76.742653,60.575802 76.707863,61.154732 
	C60.299377,61.154732 43.883518,61.154732 26.782215,61.154732 
	C31.055180,52.973236 35.166809,45.100647 39.323936,37.140942 
	C41.283852,38.939137 43.150169,40.651459 45.385010,42.701900 
	C44.545727,44.481430 43.290878,46.624638 42.549389,48.932766 
	C42.179195,50.085110 42.747482,51.538937 42.891273,52.856400 
	C43.963387,52.102737 45.518906,51.588490 46.029823,50.556892 
	C49.570034,43.408825 52.885551,36.149643 56.295376,28.936611 
	C56.698685,28.083458 57.236401,27.293842 58.144020,25.730146 
	C62.570908,33.774109 66.688690,41.256393 70.950409,49.078415 
z"/>
<path fill="#F6F7F7" opacity="1.000000" stroke="none" 
	d="
M174.567230,24.940449 
	C180.864563,26.344007 180.780533,30.932545 180.854996,35.834766 
	C175.296249,35.834766 169.895355,35.834766 164.500031,35.834766 
	C163.277618,26.929968 165.159058,24.813730 174.567230,24.940449 
z"/>
<path fill="#F6F7F7" opacity="1.000000" stroke="none" 
	d="
M100.199829,53.139587 
	C98.415627,51.564301 96.000954,50.009808 95.984138,48.429794 
	C95.965416,46.670044 97.766014,43.947037 99.417381,43.310345 
	C102.830994,41.994202 106.670906,41.783699 110.380714,41.110249 
	C111.272728,49.180725 108.151985,52.745804 100.199829,53.139587 
z"/>
</svg>